Coordinates
version=1
nRows=13
nColumns=22
inDegrees=yes

Units are S.I. units (second, meters, Newtons, ...)
If the header above contains a line with 'inDegrees', this indicates whether rotational values are in degrees (yes) or radians (no).

endheader
time	pelvis_tilt	pelvis_list	pelvis_rotation	pelvis_tx	pelvis_ty	pelvis_tz	hip_flexion_r	hip_adduction_r	hip_rotation_r	knee_angle_r	ankle_angle_r	subtalar_angle_r	hip_flexion_l	hip_adduction_l	hip_rotation_l	knee_angle_l	ankle_angle_l	subtalar_angle_l	lumbar_extension	lumbar_bending	lumbar_rotation
      2.57000000	     -7.13479886	     -4.54522075	     -5.38542331	      0.41127772	      0.92586162	     -0.24584470	      0.91902705	      5.94717013	      9.02456619	    -30.61304400	     10.63958597	      6.47314494	     33.48572371	     -7.14976196	     -1.32040296	    -27.26299803	      1.67661519	     -2.11395857	     -6.91838763	      0.55015876	      6.46807093
      2.58000000	     -7.18725108	     -4.37448518	     -5.67439642	      0.40199674	      0.92513568	     -0.24322799	      0.99822684	      5.92667762	      8.88542056	    -29.84600386	     11.76163846	      5.39372504	     33.75487911	     -7.28766894	     -1.51282244	    -26.71329520	      2.10621271	     -1.50088434	     -7.03176632	      0.34913254	      6.69122589
      2.59000000	     -7.23338606	     -4.24234296	     -5.94936849	      0.39260401	      0.92451968	     -0.24062221	      1.16414529	      5.96174062	      8.68249896	    -29.20420867	     12.81031202	      4.28081259	     33.98756123	     -7.45520628	     -1.67548672	    -26.11236851	      2.71606466	     -0.84136145	     -7.17118498	      0.19864524	      6.91456628
      2.60000000	     -7.28507397	     -4.13206532	     -6.19918779	      0.38316303	      0.92401455	     -0.23804814	      1.40568826	      6.03613247	      8.44537126	    -28.65291029	     13.76183709	      3.21777385	     34.19047874	     -7.63748575	     -1.84776050	    -25.45090165	      3.46104543	     -0.16168145	     -7.31207823	      0.08168448	      7.09267336
      2.61000000	     -7.34427333	     -4.04167819	     -6.42750577	      0.37368669	      0.92362269	     -0.23551591	      1.72539489	      6.14727268	      8.19885290	    -28.19761559	     14.61295604	      2.24782618	     34.35498924	     -7.82713189	     -1.99706769	    -24.71729472	      4.27776708	      0.54371282	     -7.45251281	     -0.00707228	      7.25412105
      2.62000000	     -7.41033110	     -3.98052984	     -6.61316165	      0.36424866	      0.92332585	     -0.23306714	      2.09541543	      6.29446844	      7.91650603	    -27.79742543	     15.35083790	      1.37273390	     34.50562554	     -8.02997869	     -2.14889114	    -23.96358005	      5.13351696	      1.24854137	     -7.58752136	     -0.05146795	      7.36822723
      2.63000000	     -7.48052341	     -3.95055276	     -6.74906682	      0.35488528	      0.92311186	     -0.23071219	      2.50585398	      6.47808562	      7.61394837	    -27.44804478	     15.98125672	      0.60578778	     34.64445431	     -8.24257110	     -2.29226997	    -23.20848503	      5.97003570	      1.93377569	     -7.71501862	     -0.05632143	      7.43357405
      2.64000000	     -7.55288081	     -3.94842232	     -6.82967119	      0.34564478	      0.92296808	     -0.22847109	      2.94159274	      6.69154262	      7.30519322	    -27.13325651	     16.50889983	     -0.05752279	     34.77784871	     -8.45814441	     -2.43022868	    -22.48339683	      6.73642887	      2.58521254	     -7.83325989	     -0.02373763	      7.45113708
      2.65000000	     -7.62828364	     -3.95599356	     -6.85822046	      0.33657701	      0.92287726	     -0.22634201	      3.39764500	      6.90820161	      6.98192102	    -26.84486061	     16.95353654	     -0.60588528	     34.92236690	     -8.66423743	     -2.58914705	    -21.83925083	      7.38416214	      3.18613390	     -7.93192026	      0.02057053	      7.42365445
      2.66000000	     -7.69075216	     -3.97788084	     -6.83984668	      0.32768128	      0.92285265	     -0.22432211	      3.86212063	      7.13753315	      6.68492110	    -26.59925585	     17.31139109	     -1.07136959	     35.06093101	     -8.85904667	     -2.72879777	    -21.30103962	      7.89820493	      3.71326123	     -8.03328991	      0.07805288	      7.35716280
      2.67000000	     -7.73561353	     -4.00164568	     -6.78485033	      0.31897615	      0.92289158	     -0.22239038	      4.33267924	      7.36422276	      6.40922137	    -26.40343744	     17.59974950	     -1.49338441	     35.20407541	     -9.03823413	     -2.86185994	    -20.92543988	      8.26879223	      4.17773888	     -8.13862155	      0.12827457	      7.26243610
      2.68000000	     -7.75479695	     -4.01669734	     -6.68648309	      0.31050752	      0.92300244	     -0.22056658	      4.78311136	      7.57118724	      6.14259526	    -26.22817800	     17.83850156	     -1.84911472	     35.35583806	     -9.18854113	     -3.00488829	    -20.76034817	      8.49665141	      4.50662694	     -8.25207608	      0.15985118	      7.13686564
      2.69000000	     -7.74394784	     -4.01634215	     -6.55468308	      0.30226404	      0.92319726	     -0.21882453	      5.21548533	      7.75626117	      5.89930364	    -26.08742731	     18.02448857	     -2.17516146	     35.51627756	     -9.30662287	     -3.13437378	    -20.84181049	      8.61075274	      4.71520495	     -8.37900293	      0.15996952	      6.97130606
